<svg width="406" height="130" viewBox="0 0 406 130" fill="none" xmlns="http://www.w3.org/2000/svg">
<g clip-path="url(#clip0_6861_1093)">
<rect width="406" height="130" fill="white"/>
<path fill-rule="evenodd" clip-rule="evenodd" d="M0 0V130H406V0H0Z" fill="#256686"/>
<g clip-path="url(#clip1_6861_1093)">
<path d="M18.7417 3L4 18.0966V18.9953L19.6224 3H18.7417Z" fill="#B0C6D9"/>
<path d="M53.5729 3L4 53.7865V54.6853L54.4536 3H53.5729Z" fill="#B0C6D9"/>
<path d="M88.4297 3L4 89.4764V90.3752L89.3103 3H88.4297Z" fill="#B0C6D9"/>
<path d="M123.261 3L4 125.166V126H4.06382L124.142 3H123.261Z" fill="#B0C6D9"/>
<path d="M38.908 126L158.986 3H158.105L38.0273 126H38.908Z" fill="#B0C6D9"/>
<path d="M73.7518 126L193.829 3H192.949L72.8711 126H73.7518Z" fill="#B0C6D9"/>
<path d="M108.583 126L228.674 3H227.793L107.715 126H108.583Z" fill="#B0C6D9"/>
<path d="M143.427 126L263.518 3H262.637L142.546 126H143.427Z" fill="#B0C6D9"/>
<path d="M178.271 126L298.361 3H297.481L177.403 126H178.271Z" fill="#B0C6D9"/>
<path d="M213.115 126L333.193 3H332.325L212.234 126H213.115Z" fill="#B0C6D9"/>
<path d="M247.959 126L368.049 3H367.169L247.078 126H247.959Z" fill="#B0C6D9"/>
<path d="M282.79 126L402 3.89876V3L281.922 126H282.79Z" fill="#B0C6D9"/>
<path d="M317.634 126L402 39.5885V38.6897L316.766 126H317.634Z" fill="#B0C6D9"/>
<path d="M352.478 126L402 75.2786V74.3799L351.598 126H352.478Z" fill="#B0C6D9"/>
<path d="M387.322 126L402 110.969V110.07L386.454 126H387.322Z" fill="#B0C6D9"/>
</g>
<g clip-path="url(#clip2_6861_1093)">
<path d="M65.8971 103H74.0871C79.9821 103 82.9071 100.705 82.9071 94.855V92.785C82.9071 88.645 80.8821 86.665 77.4621 86.035C80.3871 85.27 82.0971 83.515 82.0971 80.23V77.98C82.0971 72.985 79.2621 70.825 73.7721 70.825H65.8971V103ZM71.4771 98.86V88.06H73.4571C76.2021 88.06 77.2821 88.915 77.2821 92.29V94.54C77.2821 97.645 76.1121 98.86 73.6371 98.86H71.4771ZM71.4771 84.145V74.965H73.3671C75.6171 74.965 76.6971 75.55 76.6971 78.295V80.455C76.6971 83.11 75.7971 84.145 73.3671 84.145H71.4771ZM98.8051 70.825V94.45C98.8051 97.645 97.7701 98.86 95.6101 98.86C93.4051 98.86 92.4601 97.645 92.4601 94.585V70.825H86.7901V94.675C86.7901 100.705 90.0751 103.45 95.6101 103.45C101.235 103.45 104.475 100.66 104.475 94.675V70.825H98.8051ZM116.612 103.45C121.742 103.45 124.847 100.705 124.847 95.035V94.405C124.847 88.51 122.012 86.53 118.052 83.83C114.992 81.715 113.957 80.68 113.957 78.07V77.89C113.957 75.775 114.857 74.785 116.477 74.785C118.097 74.785 119.132 75.595 119.132 78.25V79.285H124.442V78.295C124.442 72.94 121.562 70.375 116.477 70.375C111.437 70.375 108.467 73.21 108.467 78.295V78.43C108.467 83.47 110.672 85.81 114.632 88.465C117.782 90.67 119.312 91.75 119.312 94.99V95.395C119.312 97.915 118.412 99.085 116.612 99.085C114.497 99.085 113.597 97.96 113.597 94.945V93.775H108.152V94.81C108.152 100.795 111.392 103.45 116.612 103.45ZM129.158 103H134.828V70.825H129.158V103ZM139.678 103H144.628V80.905L151.828 103H157.318V70.825H152.368V90.355L145.933 70.825H139.678V103ZM161.979 103H176.289V98.545H167.649V88.105H174.129V83.83H167.649V75.28H175.794V70.825H161.979V103ZM187.8 103.45C192.93 103.45 196.035 100.705 196.035 95.035V94.405C196.035 88.51 193.2 86.53 189.24 83.83C186.18 81.715 185.145 80.68 185.145 78.07V77.89C185.145 75.775 186.045 74.785 187.665 74.785C189.285 74.785 190.32 75.595 190.32 78.25V79.285H195.63V78.295C195.63 72.94 192.75 70.375 187.665 70.375C182.625 70.375 179.655 73.21 179.655 78.295V78.43C179.655 83.47 181.86 85.81 185.82 88.465C188.97 90.67 190.5 91.75 190.5 94.99V95.395C190.5 97.915 189.6 99.085 187.8 99.085C185.685 99.085 184.785 97.96 184.785 94.945V93.775H179.34V94.81C179.34 100.795 182.58 103.45 187.8 103.45ZM207.684 103.45C212.814 103.45 215.919 100.705 215.919 95.035V94.405C215.919 88.51 213.084 86.53 209.124 83.83C206.064 81.715 205.029 80.68 205.029 78.07V77.89C205.029 75.775 205.929 74.785 207.549 74.785C209.169 74.785 210.204 75.595 210.204 78.25V79.285H215.514V78.295C215.514 72.94 212.634 70.375 207.549 70.375C202.509 70.375 199.539 73.21 199.539 78.295V78.43C199.539 83.47 201.744 85.81 205.704 88.465C208.854 90.67 210.384 91.75 210.384 94.99V95.395C210.384 97.915 209.484 99.085 207.684 99.085C205.569 99.085 204.669 97.96 204.669 94.945V93.775H199.224V94.81C199.224 100.795 202.464 103.45 207.684 103.45ZM226.487 103H232.157V89.005H233.957L238.142 103H244.082L239.357 88.15C241.787 87.205 243.227 85.405 243.227 81.535V78.565C243.227 73.345 240.572 70.825 234.497 70.825H226.487V103ZM232.157 85.18V75.19H234.362C236.657 75.19 237.692 76.09 237.692 78.655V81.49C237.692 84.19 236.702 85.18 234.362 85.18H232.157ZM247.602 103H261.912V98.545H253.272V88.105H259.752V83.83H253.272V75.28H261.417V70.825H247.602V103ZM274.142 96.385L270.227 70.825H264.467L270.137 103H277.562L283.187 70.825H278.012L274.142 96.385ZM286.716 103H292.386V70.825H286.716V103ZM297.236 103H311.546V98.545H302.906V88.105H309.386V83.83H302.906V75.28H311.051V70.825H297.236V103ZM318.735 103H324.45L327.915 83.155L331.335 103H336.825L341.325 70.825H336.195L333.585 92.65L329.895 70.825H326.07L322.425 92.515L319.86 70.825H314.235L318.735 103Z" fill="white"/>
<path d="M164.955 61L163.38 52.45H155.415L153.885 61H151.86L157.845 28.825H161.085L167.07 61H164.955ZM159.42 30.58L155.73 50.74H163.065L159.42 30.58ZM171.162 61V28.825H173.322V59.2H182.187V61H171.162ZM186.475 61V28.825H192.055C196.375 28.825 198.805 30.67 198.805 35.125V38.455C198.805 41.65 197.41 43.27 194.71 43.9C197.86 44.44 199.615 46.24 199.615 50.2V53.665C199.615 58.75 197.545 61 192.595 61H186.475ZM188.635 59.245H192.55C195.925 59.245 197.455 57.715 197.455 53.665V50.155C197.455 46.105 195.79 44.89 192.055 44.89H188.635V59.245ZM188.635 43.135H191.92C195.34 43.135 196.69 41.65 196.69 38.41V35.125C196.69 31.705 195.16 30.58 192.01 30.58H188.635V43.135ZM215.599 61L214.024 52.45H206.059L204.529 61H202.504L208.489 28.825H211.729L217.714 61H215.599ZM210.064 30.58L206.374 50.74H213.709L210.064 30.58ZM221.761 61V28.825H224.461L233.911 55.735V28.825H235.891V61H233.506L223.741 32.695V61H221.761ZM246.064 61V46.915L239.629 28.825H241.834L247.189 44.35L252.364 28.825H254.434L248.314 46.915V61H246.064Z" fill="white"/>
</g>
</g>
<defs>
<clipPath id="clip0_6861_1093">
<rect width="406" height="130" fill="white"/>
</clipPath>
<clipPath id="clip1_6861_1093">
<rect width="398" height="123" fill="white" transform="translate(4 3)"/>
</clipPath>
<clipPath id="clip2_6861_1093">
<rect width="366" height="79" fill="white" transform="translate(20 25)"/>
</clipPath>
</defs>
</svg>
